<?xml version="1.0" encoding="UTF-8"?>
<svg id="Layer_1" xmlns="http://www.w3.org/2000/svg" version="1.1" viewBox="0 0 36 36">
  <!-- Generator: Adobe Illustrator 29.6.1, SVG Export Plug-In . SVG Version: 2.1.1 Build 9)  -->
  <path d="M17.64,4.53c1.1-.03,2.19.08,3.26.29.75-.94,1.48-1.9,2.4-2.69.25-.22,1.04-.86,1.31-.95.61-.2,1,.4.63.84-.17.21-.82.57-1.09.79-.8.66-1.47,1.45-2.07,2.29.37.16.78.27,1.16.42,3.27,1.26,6.26,4.06,7.07,7.56.36,1.57.33,3.25-.06,4.8l2.96,1.19c.59.29.33,1.05-.28,1.05l-3-1.18-.88,1.6.04.08,3.27,2.03c.43.44-.07,1.12-.64.85l-3.3-2.05-1.26,1.35,2.65,2.52c.35.47-.06.95-.61.82l-2.84-2.64c-1,.68-2.06,1.26-3.18,1.73.55,1.15,1.01,2.35,1.32,3.59s.55,2.7.47,4.02c-.02.26-.06.87-.23,1.05-.23.24-.62.23-.81-.05-.2-.29-.03-.6-.02-.92.08-1.98-.31-3.84-1-5.68-.08-.21-.66-1.63-.78-1.64l-1.35.33.42,2.17c.29,2.24.44,4.59-.27,6.76-.12.36-.31,1.1-.77,1.12-.26.01-.52-.24-.54-.49s.27-.85.36-1.14c.8-2.71.31-5.53-.23-8.24l-1.62.13.09,1.3c.08,2.62-.3,5.19-1.74,7.42-.18.27-.57.94-.9.98-.39.06-.67-.23-.61-.61.02-.17.62-.93.76-1.17,1.29-2.17,1.53-4.56,1.42-7.05,0-.19-.02-.55-.05-.72-.01-.07-.04-.17-.11-.19l-1.72-.22c-.16,2.88-1.14,5.98-3.04,8.19-.27.31-.61.77-1.06.38-.52-.45.31-1.09.57-1.44,1.57-2.11,2.42-4.75,2.46-7.38-1.13-.28-2.31-.75-3.32-1.32-.48-.27-.92-.63-1.4-.86l-2.57,2.52c-.5.37-1.13-.19-.76-.72l2.53-2.51-1.3-1.34-3.11,2.02c-.6.28-1.08-.41-.63-.89l3.11-1.96v-.09s-.88-1.57-.88-1.57l-2.86,1.1c-.52,0-.79-.62-.37-.97l2.9-1.2c-.13-.56-.27-1.16-.32-1.73-.11-1.19.04-2.43.35-3.58.85-3.07,3.32-5.52,6.18-6.8.09-1.34.56-2.65,1.12-3.86.15-.31.49-1.09.7-1.31.38-.42,1.03-.05.92.49-.7,1.32-1.34,2.67-1.61,4.16-.01.06-.02.07.06.06,1.12-.39,2.28-.72,3.48-.77.51-1.3,1.22-2.53,2.08-3.62.15-.19.61-.8.77-.9.31-.19.66-.07.81.25.1.23.05.36-.09.55-.29.41-.71.82-1.02,1.25-.53.74-.98,1.56-1.35,2.39ZM14.99,14.15c-.46,1.91-3.07.73-1.88-.88l-3.41-1.64c-.09,0-.27.36-.3.45-.61,1.68,1.03,3.56,2.5,4.15s4.05.53,4.5-1.41c-.03-.1-1.21-.62-1.41-.67ZM20.97,14.15l-1.41.67c.2,1.4,1.91,1.86,3.14,1.77,1.99-.15,4.56-2.23,3.85-4.4-.04-.12-.18-.45-.33-.42l-3.37,1.53c.02.11.11.17.17.28.77,1.64-1.84,2.31-2.05.57ZM22.71,20.8c.39-.39-.23-1.03-.5-1.33-1.91-2.17-5.13-2.63-7.48-.85-.36.28-1.35,1.21-1.52,1.6-.24.51.37.92.82.52.32-.29.62-.71.96-1.01,2.02-1.76,4.81-1.46,6.56.49.24.27.42.77.85.73.08,0,.25-.08.31-.14Z"/>
</svg>