<?xml version="1.0" encoding="UTF-8"?>
<svg id="Layer_1" xmlns="http://www.w3.org/2000/svg" version="1.1" xmlns:xlink="http://www.w3.org/1999/xlink" viewBox="0 0 256 128">
  <!-- Generator: Adobe Illustrator 29.6.1, SVG Export Plug-In . SVG Version: 2.1.1 Build 9)  -->
  <defs>
    <style>
      .st0 {
        fill: url(#linear-gradient5);
      }

      .st0, .st1, .st2, .st3, .st4, .st5, .st6, .st7 {
        stroke: #ffb300;
        stroke-miterlimit: 8;
        stroke-width: 3px;
      }

      .st8 {
        opacity: .32;
      }

      .st8, .st9, .st10, .st11 {
        fill: #fff;
      }

      .st8, .st10, .st11, .st12 {
        isolation: isolate;
      }

      .st1 {
        fill: url(#linear-gradient1);
      }

      .st10 {
        opacity: .3;
      }

      .st11 {
        opacity: .18;
      }

      .st2 {
        fill: url(#linear-gradient7);
      }

      .st3 {
        fill: url(#linear-gradient2);
      }

      .st4 {
        fill: url(#linear-gradient4);
      }

      .st13 {
        fill: #ffd600;
      }

      .st12 {
        fill: #ffa726;
        opacity: .4;
      }

      .st5 {
        fill: url(#linear-gradient);
      }

      .st6 {
        fill: url(#linear-gradient6);
      }

      .st7 {
        fill: url(#linear-gradient3);
      }

      .st14 {
        fill: #fff8dc;
      }
    </style>
    <linearGradient id="linear-gradient" x1="213.14" y1="168.97" x2="213.14" y2="157.62" gradientTransform="translate(358.59 458.71) rotate(-90) scale(2 -2)" gradientUnits="userSpaceOnUse">
      <stop offset="0" stop-color="#ffca28"/>
      <stop offset="1" stop-color="#ffa726"/>
    </linearGradient>
    <linearGradient id="linear-gradient1" x1="213.2" y1="136.32" x2="213.2" y2="126.26" xlink:href="#linear-gradient"/>
    <linearGradient id="linear-gradient2" x1="213.14" y1="105.91" x2="213.14" y2="92.67" xlink:href="#linear-gradient"/>
    <linearGradient id="linear-gradient3" x1="213" y1="73.49" x2="213" y2="61.1" xlink:href="#linear-gradient"/>
    <linearGradient id="linear-gradient4" x1="181.14" x2="181.14" xlink:href="#linear-gradient"/>
    <linearGradient id="linear-gradient5" x1="181.2" y1="136.32" x2="181.2" y2="126.26" xlink:href="#linear-gradient"/>
    <linearGradient id="linear-gradient6" x1="181.14" y1="105.91" x2="181.14" y2="92.67" xlink:href="#linear-gradient"/>
    <linearGradient id="linear-gradient7" x1="181" y1="73.49" x2="181" y2="61.1" xlink:href="#linear-gradient"/>
  </defs>
  <g>
    <path class="st14" d="M19.14,48V16c0-6.63,5.76-12,12.86-12h0c7.1,0,12.86,5.37,12.86,12v32c0,6.63-5.76,12-12.86,12h0c-7.1,0-12.86-5.37-12.86-12Z"/>
    <path class="st5" d="M20.65,47.84v-30.83c0-6.08,5.08-11.01,11.35-11.01h0c6.27,0,11.35,4.93,11.35,11.01v30.83c0,6.08-5.08,11.01-11.35,11.01h0c-6.27,0-11.35-4.93-11.35-11.01Z"/>
    <rect class="st10" x="31.25" y="20.54" width="1.5" height="21.43" transform="translate(.75 63.25) rotate(-90)"/>
    <rect class="st12" x="31.5" y="20.79" width="1" height="21.43" transform="translate(.5 63.5) rotate(-90)"/>
    <g>
      <ellipse class="st9" cx="27.71" cy="49" rx="2.36" ry="2.2"/>
      <ellipse class="st9" cx="26.64" cy="41" rx="2.79" ry="2.6"/>
      <ellipse class="st9" cx="34.14" cy="45" rx="2.25" ry="2.1"/>
      <ellipse class="st9" cx="32" cy="37" rx="1.82" ry="1.7"/>
      <ellipse class="st9" cx="36.29" cy="50" rx="2.57" ry="2.4"/>
      <ellipse class="st9" cx="37.36" cy="42" rx="2.14" ry="2"/>
      <ellipse class="st9" cx="30.93" cy="44" rx="1.61" ry="1.5"/>
      <ellipse class="st9" cx="33.07" cy="52" rx="1.71" ry="1.6"/>
      <ellipse class="st9" cx="28.79" cy="25" rx="2.25" ry="2.1"/>
      <ellipse class="st9" cx="32" cy="18" rx="2.57" ry="2.4"/>
      <ellipse class="st9" cx="27.71" cy="13" rx="2.46" ry="2.3"/>
      <ellipse class="st9" cx="37.36" cy="22" rx="2.25" ry="2.1"/>
      <ellipse class="st9" cx="37.36" cy="14" rx="1.93" ry="1.8"/>
      <ellipse class="st9" cx="34.14" cy="24" rx="1.5" ry="1.4"/>
      <ellipse class="st9" cx="35.21" cy="19" rx="1.71" ry="1.6"/>
    </g>
    <ellipse class="st8" cx="25.57" cy="45" rx="2.68" ry="8"/>
    <ellipse class="st11" cx="24.5" cy="18" rx="2.14" ry="7"/>
    <path class="st13" d="M32,62c-8.27,0-15-6.28-15-14V16c0-7.72,6.73-14,15-14s15,6.28,15,14v32c0,7.72-6.73,14-15,14ZM32,6c-5.91,0-10.71,4.49-10.71,10v32c0,5.51,4.81,10,10.71,10s10.71-4.49,10.71-10V16c0-5.51-4.81-10-10.71-10Z"/>
  </g>
  <g>
    <path class="st14" d="M84.66,46.76c1.06-10.15,1.53-20.28,1.38-30.38-.13-6.02,4.15-13.54,9.96-13.63t0,0c5.8.09,10.09,7.6,9.96,13.63-.14,10.11.32,20.24,1.38,30.38.81,6-4.09,14.14-11.34,14.25t0,0c-7.25-.11-12.15-8.25-11.34-14.25Z"/>
    <path class="st1" d="M86,46.97c.9-10,1.31-19.96,1.22-29.89-.08-5.69,3.72-12.2,8.78-12.27t0,0c5.06.06,8.86,6.58,8.78,12.27-.09,9.93.32,19.9,1.22,29.89.65,5.69-3.69,12.76-10,12.83t0,0c-6.3-.08-10.65-7.14-10-12.83Z"/>
    <path class="st10" d="M87.5,31.6c.02-.49.03-.98.05-1.47,5.63.01,11.26.01,16.89,0,.02.49.03.98.05,1.47-5.66.14-11.33.14-16.99,0Z"/>
    <path class="st12" d="M87.5,31.6c.01-.33.02-.65.03-.98,5.64.05,11.28.05,16.92,0,.01.33.02.65.03.98-5.66.14-11.33.14-16.99,0Z"/>
    <g>
      <path class="st9" d="M90.09,48.99c.07-1.24,1.04-2.11,2.17-2.01,1.13.1,2.04,1.16,2.02,2.44-.01,1.27-.99,2.26-2.18,2.13-1.19-.13-2.09-1.32-2.02-2.56Z"/>
      <path class="st9" d="M89.21,40.69c.07-1.44,1.14-2.52,2.4-2.45,1.26.07,2.27,1.31,2.25,2.8-.02,1.5-1.1,2.67-2.41,2.54-1.31-.13-2.31-1.46-2.24-2.9Z"/>
      <path class="st9" d="M95.91,45.27c0-1.21.86-2.19,1.9-2.23,1.05-.03,1.93.87,1.96,2.07.04,1.2-.81,2.26-1.9,2.31-1.09.05-1.97-.94-1.97-2.15Z"/>
      <path class="st9" d="M94.52,36.9c0-.98.67-1.76,1.48-1.76.81,0,1.47.78,1.48,1.76,0,.98-.65,1.79-1.48,1.79-.83,0-1.49-.81-1.48-1.79Z"/>
      <path class="st9" d="M97.54,50.47c-.01-1.39.98-2.54,2.23-2.66,1.24-.11,2.31.82,2.39,2.17.08,1.35-.91,2.66-2.22,2.81-1.31.16-2.38-.93-2.4-2.32Z"/>
      <path class="st9" d="M98.7,42.06c-.02-1.15.76-2.11,1.74-2.18.98-.06,1.81.76,1.86,1.88.05,1.11-.72,2.14-1.73,2.24-1.01.1-1.85-.79-1.87-1.94Z"/>
      <path class="st9" d="M93.72,44.17c.02-.86.63-1.53,1.38-1.52.75.01,1.36.71,1.36,1.57,0,.87-.61,1.58-1.38,1.56-.77-.02-1.38-.75-1.36-1.61Z"/>
      <path class="st9" d="M95.41,52.6c0-.93.7-1.66,1.55-1.69.85-.02,1.56.67,1.58,1.6.02.92-.67,1.73-1.55,1.76-.88.03-1.59-.74-1.58-1.67Z"/>
      <path class="st9" d="M91.76,24.52c0-1.18.79-2.19,1.75-2.22.96-.03,1.74.94,1.74,2.14,0,1.2-.79,2.18-1.76,2.19-.97.01-1.74-.93-1.73-2.11Z"/>
      <path class="st9" d="M94.01,17.23c0-1.36.89-2.52,1.99-2.52,1.1,0,1.99,1.16,1.99,2.52,0,1.36-.89,2.44-1.99,2.44-1.1,0-1.99-1.07-1.99-2.44Z"/>
      <path class="st9" d="M90.74,12.44c-.02-1.28.83-2.48,1.9-2.6,1.07-.12,1.94.9,1.94,2.21,0,1.31-.85,2.4-1.9,2.49-1.05.09-1.92-.83-1.93-2.1Z"/>
      <path class="st9" d="M98.4,21.37c0-1.2.78-2.13,1.74-2.06.96.08,1.74,1.11,1.74,2.27,0,1.16-.77,2.05-1.73,2.01-.96-.04-1.75-1.03-1.75-2.23Z"/>
      <path class="st9" d="M98.66,13.15c0-1.02.68-1.8,1.52-1.68.83.11,1.49,1.05,1.48,2.04-.01,1-.69,1.71-1.51,1.62-.82-.09-1.49-.96-1.49-1.98Z"/>
      <path class="st9" d="M96.5,23.4c0-.8.52-1.45,1.16-1.43.64.02,1.16.68,1.17,1.48,0,.8-.51,1.43-1.16,1.42-.64,0-1.17-.66-1.17-1.46Z"/>
      <path class="st9" d="M97.16,18.23c0-.91.59-1.64,1.33-1.6.73.04,1.32.83,1.32,1.73,0,.9-.59,1.59-1.32,1.56-.73-.03-1.32-.78-1.32-1.7Z"/>
    </g>
    <path class="st8" d="M88.17,44.59c.29-4.39,1.41-7.88,2.6-7.83,1.19.06,2.11,3.8,2,8.39-.1,4.59-1.33,8.23-2.72,7.97-1.39-.27-2.19-4.15-1.89-8.53Z"/>
    <path class="st11" d="M88.55,17.8c-.02-3.79.65-7.07,1.58-7.27.93-.19,1.73,2.9,1.73,6.84.01,3.95-.76,7.18-1.68,7.22-.92.04-1.61-3-1.63-6.8Z"/>
    <path class="st13" d="M96,63.12c-8.68-.18-14.34-10.36-13.23-16.95,1.24-9.78,1.78-19.56,1.61-29.33-.19-6.68,4.75-15.99,11.61-16.14,6.87.14,11.8,9.46,11.62,16.14-.17,9.78.37,19.56,1.61,29.33,1.11,6.59-4.55,16.77-13.23,16.95ZM96,4.81c-4.76.05-8.39,5.97-8.3,11.19.12,10.39-.27,20.81-1.15,31.27-.56,5.23,3.58,11.58,9.45,11.64,5.87-.06,10.01-6.42,9.45-11.64-.89-10.46-1.27-20.89-1.15-31.27.09-5.22-3.53-11.14-8.3-11.19Z"/>
  </g>
  <g>
    <path class="st14" d="M145.13,47.8c1.89-10.84,3.54-21.64,4.94-32.42,1.02-6.62,5.4-12.75,9.93-12.77h0c4.53.03,8.91,6.16,9.93,12.77,1.4,10.78,3.05,21.59,4.94,32.42,1.41,6.58-5.18,13.55-14.87,13.6t0,0c-9.69-.05-16.27-7.02-14.87-13.6Z"/>
    <path class="st3" d="M146.9,47.83c1.61-10.54,3.01-21.04,4.22-31.49.84-6.13,4.76-11.64,8.88-11.66h0c4.12.02,8.05,5.53,8.88,11.66,1.21,10.46,2.61,20.95,4.22,31.49,1.14,6.13-4.68,12.32-13.1,12.35t0,0c-8.42-.04-14.24-6.22-13.1-12.35Z"/>
    <path class="st10" d="M149.82,31.63c.06-.51.13-1.02.19-1.54,6.66.13,13.32.13,19.97,0,.06.51.13,1.02.19,1.54-6.79.18-13.57.18-20.36,0Z"/>
    <path class="st12" d="M149.82,31.63c.04-.34.09-.68.13-1.02,6.7.15,13.4.15,20.1,0,.04.34.09.68.13,1.02-6.79.18-13.57.18-20.36,0Z"/>
    <g>
      <path class="st9" d="M152.23,49.47c.12-1.27,1.41-2.23,2.89-2.18,1.48.05,2.65,1.11,2.63,2.4-.03,1.29-1.32,2.31-2.89,2.24-1.57-.07-2.75-1.19-2.63-2.46Z"/>
      <path class="st9" d="M151.35,41.02c.16-1.49,1.57-2.64,3.14-2.6,1.57.04,2.82,1.28,2.78,2.8-.04,1.51-1.45,2.72-3.14,2.65-1.7-.07-2.94-1.36-2.78-2.85Z"/>
      <path class="st9" d="M159.88,45.47c0-1.23,1.1-2.22,2.45-2.24,1.34-.02,2.49.93,2.57,2.15.08,1.22-1.02,2.26-2.45,2.28-1.43.03-2.58-.97-2.57-2.2Z"/>
      <path class="st9" d="M158.16,37.02c.03-.99.85-1.78,1.84-1.78.99,0,1.82.79,1.84,1.78.03.99-.8,1.8-1.84,1.8-1.04,0-1.87-.81-1.84-1.8Z"/>
      <path class="st9" d="M162.03,50.75c-.02-1.41,1.28-2.56,2.9-2.62,1.63-.06,3.05.98,3.19,2.37.14,1.39-1.16,2.62-2.9,2.7-1.74.08-3.17-1.04-3.19-2.45Z"/>
      <path class="st9" d="M163.46,42.26c-.04-1.16.93-2.12,2.17-2.16,1.24-.04,2.33.85,2.44,2,.11,1.15-.85,2.14-2.16,2.2-1.31.05-2.41-.87-2.45-2.03Z"/>
      <path class="st9" d="M157.05,44.38c.03-.87.84-1.57,1.79-1.56.96,0,1.74.71,1.75,1.59,0,.88-.79,1.59-1.79,1.58-1,0-1.78-.74-1.75-1.61Z"/>
      <path class="st9" d="M159.22,52.89c.01-.94.93-1.69,2.05-1.7,1.12-.01,2.06.72,2.1,1.66.04.94-.88,1.73-2.05,1.74-1.17.01-2.11-.76-2.1-1.69Z"/>
      <path class="st9" d="M155.25,24.44c.08-1.2.98-2.19,2.03-2.2,1.05,0,1.89.97,1.88,2.19,0,1.21-.92,2.2-2.03,2.2-1.11,0-1.95-.98-1.88-2.19Z"/>
      <path class="st9" d="M157.96,17.14c.04-1.38.95-2.51,2.04-2.51,1.08,0,2,1.13,2.04,2.51.04,1.38-.87,2.49-2.04,2.49-1.17,0-2.08-1.11-2.04-2.49Z"/>
      <path class="st9" d="M154.99,12.04c.09-1.31.95-2.41,1.92-2.45.97-.03,1.75,1.02,1.73,2.34-.02,1.32-.88,2.4-1.93,2.42-1.05.02-1.82-1.01-1.73-2.31Z"/>
      <path class="st9" d="M162.6,21.31c-.03-1.21.75-2.18,1.76-2.16,1.01.02,1.9,1.01,2,2.21.1,1.2-.68,2.16-1.76,2.16-1.07,0-1.97-.99-2-2.2Z"/>
      <path class="st9" d="M162.58,13c-.03-1.03.58-1.85,1.35-1.82.78.03,1.47.9,1.55,1.92.08,1.02-.53,1.83-1.35,1.8-.82-.02-1.52-.87-1.55-1.9Z"/>
      <path class="st9" d="M160.55,23.39c0-.81.56-1.46,1.25-1.46.7,0,1.29.66,1.32,1.47.03.81-.53,1.46-1.25,1.46-.73,0-1.32-.66-1.32-1.46Z"/>
      <path class="st9" d="M161.21,18.17c-.01-.92.58-1.66,1.32-1.65.74.01,1.38.77,1.43,1.68.05.92-.54,1.65-1.32,1.64-.78,0-1.42-.76-1.43-1.68Z"/>
    </g>
    <path class="st8" d="M149.84,45.11c.57-4.57,2.19-8.22,3.66-8.18,1.47.04,2.51,3.82,2.32,8.48-.19,4.66-1.86,8.41-3.7,8.28-1.85-.13-2.84-4.01-2.27-8.57Z"/>
    <path class="st11" d="M152.35,17.28c.41-3.96,1.39-7.21,2.23-7.27.84-.05,1.37,3.15,1.17,7.16-.2,4.01-1.22,7.27-2.27,7.27-1.05,0-1.54-3.21-1.13-7.17Z"/>
    <path class="st13" d="M160,63.54c-11.59-.09-19.26-8.55-17.34-16.04,2.2-10.67,4.12-21.33,5.76-32,1.39-7.6,6.47-14.92,11.58-14.96,5.11.04,10.2,7.36,11.58,14.96,1.64,10.67,3.56,21.33,5.76,32,1.91,7.49-5.76,15.95-17.34,16.04ZM160,4.67c-3.89.02-7.56,5.03-8.27,10.61-1.17,10.88-2.54,21.81-4.11,32.78-.97,5.59,4.54,11.18,12.39,11.21,7.85-.03,13.36-5.62,12.39-11.21-1.57-10.98-2.95-21.91-4.11-32.78-.71-5.58-4.38-10.59-8.27-10.61Z"/>
  </g>
  <g>
    <path class="st14" d="M212.32,48.13c-1.03-10.43-1.83-20.88-2.39-31.34-.4-6.37,5.96-12.9,14.07-12.95h0c8.1.05,14.47,6.57,14.07,12.95-.56,10.46-1.36,20.91-2.39,31.34-.77,6.39-6.07,12.52-11.68,12.55t0,0c-5.61-.03-10.91-6.16-11.68-12.55Z"/>
    <path class="st7" d="M213.67,48.07c-.88-10.13-1.56-20.27-2.05-30.44-.33-5.93,5.25-11.72,12.37-11.75h0c7.12.03,12.71,5.82,12.37,11.75-.49,10.17-1.17,20.31-2.05,30.44-.62,5.92-5.3,11.43-10.33,11.45t0,0c-5.03-.02-9.7-5.53-10.33-11.45Z"/>
    <path class="st10" d="M213.12,32.44c-.03-.5-.06-.99-.09-1.49,7.31-.14,14.62-.14,21.93,0-.03.5-.06.99-.09,1.49-7.25-.09-14.5-.09-21.75,0Z"/>
    <path class="st12" d="M213.12,32.44c-.02-.33-.04-.66-.06-.99,7.29-.12,14.58-.12,21.87,0-.02.33-.04.66-.06.99-7.25-.09-14.5-.09-21.75,0Z"/>
    <g>
      <path class="st9" d="M218.02,49.46c-.07-1.22.85-2.17,2.05-2.14,1.2.03,2.18,1.03,2.19,2.26.01,1.23-.9,2.21-2.05,2.17-1.15-.04-2.13-1.07-2.2-2.29Z"/>
      <path class="st9" d="M216.2,41.41c-.08-1.43,1.07-2.58,2.58-2.57,1.51.01,2.74,1.19,2.76,2.65.02,1.45-1.13,2.62-2.57,2.59-1.44-.03-2.68-1.23-2.77-2.67Z"/>
      <path class="st9" d="M223.9,45.54c0-1.17.95-2.12,2.13-2.13,1.18,0,2.1.92,2.06,2.09-.04,1.17-.99,2.14-2.13,2.15-1.13.01-2.06-.94-2.06-2.11Z"/>
      <path class="st9" d="M222.21,37.44c-.01-.95.79-1.72,1.79-1.72,1,0,1.81.77,1.79,1.72-.01.95-.82,1.72-1.79,1.72-.98,0-1.78-.77-1.79-1.72Z"/>
      <path class="st9" d="M225.53,50.58c.01-1.34,1.08-2.43,2.38-2.46,1.3-.03,2.29,1,2.22,2.33-.08,1.32-1.14,2.46-2.38,2.5-1.24.04-2.23-1.03-2.22-2.37Z"/>
      <path class="st9" d="M227.06,42.49c.02-1.12.97-2.03,2.11-2.04,1.15-.01,2.03.87,1.97,1.97-.06,1.1-1.01,2.03-2.11,2.05-1.11.03-1.99-.87-1.96-1.98Z"/>
      <path class="st9" d="M221.49,44.51c-.02-.84.65-1.51,1.5-1.51.84,0,1.52.68,1.52,1.52,0,.84-.67,1.52-1.5,1.51-.82,0-1.5-.69-1.52-1.53Z"/>
      <path class="st9" d="M223.44,52.61c0-.89.67-1.61,1.52-1.62.85,0,1.51.7,1.49,1.59-.02.89-.7,1.63-1.52,1.64-.82,0-1.48-.72-1.49-1.61Z"/>
      <path class="st9" d="M218.25,25.32c-.03-1.17,1.01-2.15,2.34-2.17,1.32-.02,2.4.93,2.4,2.11,0,1.18-1.04,2.14-2.33,2.15-1.29.01-2.37-.92-2.4-2.09Z"/>
      <path class="st9" d="M221.21,18.16c-.02-1.35,1.23-2.47,2.79-2.47,1.56,0,2.81,1.12,2.79,2.47-.02,1.35-1.27,2.42-2.79,2.42-1.52,0-2.77-1.07-2.79-2.42Z"/>
      <path class="st9" d="M216.54,13.26c-.03-1.28,1.17-2.41,2.69-2.47,1.52-.06,2.75.97,2.76,2.26,0,1.3-1.2,2.36-2.69,2.41-1.49.05-2.73-.92-2.76-2.2Z"/>
      <path class="st9" d="M227.32,22.23c.01-1.18,1.11-2.12,2.45-2.07,1.34.04,2.39,1.04,2.35,2.21-.04,1.16-1.15,2.07-2.46,2.04-1.31-.03-2.36-1-2.35-2.18Z"/>
      <path class="st9" d="M227.78,14.11c.01-1.01.98-1.8,2.16-1.75,1.18.06,2.12.94,2.09,1.94-.03,1-1,1.76-2.16,1.71-1.16-.05-2.1-.89-2.09-1.9Z"/>
      <path class="st9" d="M224.68,24.24c0-.79.72-1.42,1.6-1.41.88,0,1.59.66,1.57,1.44-.01.78-.73,1.41-1.6,1.4-.87,0-1.57-.65-1.57-1.43Z"/>
      <path class="st9" d="M225.62,19.16c0-.9.84-1.62,1.88-1.6,1.03.02,1.85.78,1.83,1.68-.02.89-.86,1.6-1.88,1.58-1.02-.02-1.84-.75-1.83-1.65Z"/>
    </g>
    <path class="st8" d="M215.53,45.37c-.3-4.39.67-7.95,2.14-7.94,1.47,0,2.74,3.63,2.84,8.09.1,4.46-.83,8.03-2.1,7.96-1.27-.08-2.58-3.72-2.88-8.1Z"/>
    <path class="st11" d="M213.53,18.48c-.17-3.85.8-7.08,2.12-7.18,1.32-.1,2.45,3.03,2.53,6.94.08,3.92-.84,7.11-2.08,7.14-1.24.03-2.4-3.05-2.57-6.9Z"/>
    <path class="st13" d="M224,62.69c-6.36-.05-12.57-7.41-13.63-14.72-1.2-10.31-2.13-20.62-2.78-30.93-.54-7.26,6.92-15.17,16.41-15.24,9.49.08,16.95,7.98,16.41,15.24-.65,10.31-1.58,20.62-2.78,30.93-1.05,7.32-7.27,14.67-13.63,14.72ZM224,5.88c-6.7.02-12,5.29-11.72,10.69.47,10.59,1.13,21.15,1.99,31.69.53,5.39,4.94,10.38,9.73,10.4,4.79-.02,9.2-5.01,9.73-10.4.86-10.54,1.52-21.1,1.99-31.69.28-5.4-5.02-10.67-11.72-10.69Z"/>
  </g>
  <g>
    <path class="st14" d="M19.14,112v-32c0-6.63,5.76-12,12.86-12h0c7.1,0,12.86,5.37,12.86,12v32c0,6.63-5.76,12-12.86,12h0c-7.1,0-12.86-5.37-12.86-12Z"/>
    <path class="st4" d="M20.65,111.84v-30.83c0-6.08,5.08-11.01,11.35-11.01h0c6.27,0,11.35,4.93,11.35,11.01v30.83c0,6.08-5.08,11.01-11.35,11.01h0c-6.27,0-11.35-4.93-11.35-11.01Z"/>
    <rect class="st10" x="31.25" y="84.54" width="1.5" height="21.43" transform="translate(-63.25 127.25) rotate(-90)"/>
    <rect class="st12" x="31.5" y="84.79" width="1" height="21.43" transform="translate(-63.5 127.5) rotate(-90)"/>
    <g>
      <ellipse class="st9" cx="27.71" cy="113" rx="2.36" ry="2.2"/>
      <ellipse class="st9" cx="26.64" cy="105" rx="2.79" ry="2.6"/>
      <ellipse class="st9" cx="34.14" cy="109" rx="2.25" ry="2.1"/>
      <ellipse class="st9" cx="32" cy="101" rx="1.82" ry="1.7"/>
      <ellipse class="st9" cx="36.29" cy="114" rx="2.57" ry="2.4"/>
      <ellipse class="st9" cx="37.36" cy="106" rx="2.14" ry="2"/>
      <ellipse class="st9" cx="30.93" cy="108" rx="1.61" ry="1.5"/>
      <ellipse class="st9" cx="33.07" cy="116" rx="1.71" ry="1.6"/>
      <ellipse class="st9" cx="28.79" cy="89" rx="2.25" ry="2.1"/>
      <ellipse class="st9" cx="32" cy="82" rx="2.57" ry="2.4"/>
      <ellipse class="st9" cx="27.71" cy="77" rx="2.46" ry="2.3"/>
      <ellipse class="st9" cx="37.36" cy="86" rx="2.25" ry="2.1"/>
      <ellipse class="st9" cx="37.36" cy="78" rx="1.93" ry="1.8"/>
      <ellipse class="st9" cx="34.14" cy="88" rx="1.5" ry="1.4"/>
      <ellipse class="st9" cx="35.21" cy="83" rx="1.71" ry="1.6"/>
    </g>
    <ellipse class="st8" cx="25.57" cy="109" rx="2.68" ry="8"/>
    <ellipse class="st11" cx="24.5" cy="82" rx="2.14" ry="7"/>
    <path class="st13" d="M32,126c-8.27,0-15-6.28-15-14v-32c0-7.72,6.73-14,15-14s15,6.28,15,14v32c0,7.72-6.73,14-15,14ZM32,70c-5.91,0-10.71,4.49-10.71,10v32c0,5.51,4.81,10,10.71,10s10.71-4.49,10.71-10v-32c0-5.51-4.81-10-10.71-10Z"/>
  </g>
  <g>
    <path class="st14" d="M84.66,110.76c1.06-10.15,1.53-20.28,1.38-30.38-.13-6.02,4.15-13.54,9.96-13.63t0,0c5.8.09,10.09,7.6,9.96,13.63-.14,10.11.32,20.24,1.38,30.38.81,6-4.09,14.14-11.34,14.25t0,0c-7.25-.11-12.15-8.25-11.34-14.25Z"/>
    <path class="st0" d="M86,110.97c.9-10,1.31-19.96,1.22-29.89-.08-5.69,3.72-12.21,8.78-12.27t0,0c5.06.06,8.86,6.58,8.78,12.27-.09,9.93.32,19.9,1.22,29.89.65,5.69-3.69,12.76-10,12.83t0,0c-6.3-.08-10.65-7.14-10-12.83Z"/>
    <path class="st10" d="M87.5,95.6c.02-.49.03-.98.05-1.47,5.63.01,11.26.01,16.89,0,.02.49.03.98.05,1.47-5.66.14-11.33.14-16.99,0Z"/>
    <path class="st12" d="M87.5,95.6c.01-.33.02-.65.03-.98,5.64.05,11.28.05,16.92,0,.01.33.02.65.03.98-5.66.14-11.33.14-16.99,0Z"/>
    <g>
      <path class="st9" d="M90.09,112.99c.07-1.24,1.04-2.11,2.17-2.01,1.13.1,2.04,1.16,2.02,2.44-.01,1.27-.99,2.26-2.18,2.13-1.19-.13-2.09-1.32-2.02-2.56Z"/>
      <path class="st9" d="M89.21,104.69c.07-1.44,1.14-2.52,2.4-2.45,1.26.07,2.27,1.31,2.25,2.8-.02,1.5-1.1,2.67-2.41,2.54-1.31-.13-2.31-1.46-2.24-2.9Z"/>
      <path class="st9" d="M95.91,109.27c0-1.21.86-2.19,1.9-2.23,1.05-.03,1.93.87,1.96,2.07.04,1.2-.81,2.26-1.9,2.31-1.09.05-1.97-.94-1.97-2.15Z"/>
      <path class="st9" d="M94.52,100.9c0-.98.67-1.76,1.48-1.76.81,0,1.47.78,1.48,1.76,0,.98-.65,1.79-1.48,1.79-.83,0-1.49-.81-1.48-1.79Z"/>
      <path class="st9" d="M97.54,114.47c-.01-1.39.98-2.54,2.23-2.66,1.24-.11,2.31.82,2.39,2.17.08,1.35-.91,2.66-2.22,2.81-1.31.16-2.38-.93-2.4-2.32Z"/>
      <path class="st9" d="M98.7,106.06c-.02-1.15.76-2.11,1.74-2.18.98-.06,1.81.76,1.86,1.88.05,1.11-.72,2.14-1.73,2.24-1.01.1-1.85-.79-1.87-1.94Z"/>
      <path class="st9" d="M93.72,108.17c.02-.86.63-1.53,1.38-1.52.75.01,1.36.71,1.36,1.57,0,.87-.61,1.58-1.38,1.56-.77-.02-1.38-.75-1.36-1.61Z"/>
      <path class="st9" d="M95.41,116.6c0-.93.7-1.66,1.55-1.69.85-.02,1.56.67,1.58,1.6.02.92-.67,1.73-1.55,1.76-.88.03-1.59-.74-1.58-1.67Z"/>
      <path class="st9" d="M91.76,88.52c0-1.18.79-2.19,1.75-2.22.96-.03,1.74.94,1.74,2.14,0,1.2-.79,2.18-1.76,2.19-.97.01-1.74-.93-1.73-2.11Z"/>
      <path class="st9" d="M94.01,81.23c0-1.36.89-2.52,1.99-2.52,1.1,0,1.99,1.16,1.99,2.52,0,1.36-.89,2.44-1.99,2.44-1.1,0-1.99-1.07-1.99-2.44Z"/>
      <path class="st9" d="M90.74,76.44c-.02-1.28.83-2.48,1.9-2.6,1.07-.12,1.94.9,1.94,2.21,0,1.31-.85,2.4-1.9,2.49-1.05.09-1.92-.83-1.93-2.1Z"/>
      <path class="st9" d="M98.4,85.37c0-1.2.78-2.13,1.74-2.06.96.08,1.74,1.11,1.74,2.27,0,1.16-.77,2.05-1.73,2.01-.96-.04-1.75-1.03-1.75-2.23Z"/>
      <path class="st9" d="M98.66,77.15c0-1.02.68-1.8,1.52-1.68.83.11,1.49,1.05,1.48,2.04-.01,1-.69,1.71-1.51,1.62-.82-.09-1.49-.96-1.49-1.98Z"/>
      <path class="st9" d="M96.5,87.4c0-.8.52-1.45,1.16-1.43.64.02,1.16.68,1.17,1.48,0,.8-.51,1.43-1.16,1.42-.64,0-1.17-.66-1.17-1.46Z"/>
      <path class="st9" d="M97.16,82.23c0-.91.59-1.64,1.33-1.6.73.04,1.32.83,1.32,1.73,0,.9-.59,1.59-1.32,1.56-.73-.03-1.32-.78-1.32-1.7Z"/>
    </g>
    <path class="st8" d="M88.17,108.59c.29-4.39,1.41-7.88,2.6-7.83,1.19.06,2.11,3.8,2,8.39-.1,4.59-1.33,8.23-2.72,7.97-1.39-.27-2.19-4.15-1.89-8.53Z"/>
    <path class="st11" d="M88.55,81.8c-.02-3.79.65-7.07,1.58-7.27.93-.19,1.73,2.9,1.73,6.84.01,3.95-.76,7.18-1.68,7.22-.92.04-1.61-3-1.63-6.8Z"/>
    <path class="st13" d="M96,127.12c-8.68-.18-14.34-10.36-13.23-16.95,1.24-9.78,1.78-19.56,1.61-29.33-.19-6.68,4.75-15.99,11.61-16.14,6.87.14,11.8,9.46,11.62,16.14-.17,9.78.37,19.56,1.61,29.33,1.11,6.59-4.55,16.77-13.23,16.95ZM96,68.81c-4.76.05-8.39,5.97-8.3,11.19.12,10.39-.27,20.81-1.15,31.27-.56,5.23,3.58,11.58,9.45,11.64,5.87-.06,10.01-6.42,9.45-11.64-.89-10.46-1.27-20.89-1.15-31.27.09-5.22-3.53-11.14-8.3-11.19Z"/>
  </g>
  <g>
    <path class="st14" d="M145.13,111.8c1.89-10.84,3.54-21.64,4.94-32.42,1.02-6.62,5.4-12.75,9.93-12.77t0,0c4.53.03,8.91,6.16,9.93,12.77,1.4,10.78,3.05,21.59,4.94,32.42,1.41,6.58-5.18,13.55-14.87,13.6t0,0c-9.69-.05-16.27-7.02-14.87-13.6Z"/>
    <path class="st6" d="M146.9,111.83c1.61-10.54,3.01-21.04,4.22-31.49.84-6.13,4.76-11.64,8.88-11.66t0,0c4.12.02,8.05,5.53,8.88,11.66,1.21,10.46,2.61,20.95,4.22,31.49,1.14,6.13-4.68,12.32-13.1,12.35t0,0c-8.42-.04-14.24-6.22-13.1-12.35Z"/>
    <path class="st10" d="M149.82,95.63c.06-.51.13-1.02.19-1.54,6.66.13,13.32.13,19.97,0,.06.51.13,1.02.19,1.54-6.79.18-13.57.18-20.36,0Z"/>
    <path class="st12" d="M149.82,95.63c.04-.34.09-.68.13-1.02,6.7.15,13.4.15,20.1,0,.04.34.09.68.13,1.02-6.79.18-13.57.18-20.36,0Z"/>
    <g>
      <path class="st9" d="M152.23,113.47c.12-1.27,1.41-2.23,2.89-2.18,1.48.05,2.65,1.11,2.63,2.4-.03,1.29-1.32,2.31-2.89,2.24-1.57-.07-2.75-1.19-2.63-2.46Z"/>
      <path class="st9" d="M151.35,105.02c.16-1.49,1.57-2.64,3.14-2.6,1.57.04,2.82,1.28,2.78,2.8-.04,1.51-1.45,2.72-3.14,2.65-1.7-.07-2.94-1.36-2.78-2.85Z"/>
      <path class="st9" d="M159.88,109.47c0-1.23,1.1-2.22,2.45-2.24,1.34-.02,2.49.93,2.57,2.15.08,1.22-1.02,2.26-2.45,2.28-1.43.03-2.58-.97-2.57-2.2Z"/>
      <path class="st9" d="M158.16,101.02c.03-.99.85-1.78,1.84-1.78.99,0,1.82.79,1.84,1.78.03.99-.8,1.8-1.84,1.8-1.04,0-1.87-.81-1.84-1.8Z"/>
      <path class="st9" d="M162.03,114.75c-.02-1.41,1.28-2.56,2.9-2.62,1.63-.06,3.05.98,3.19,2.37.14,1.39-1.16,2.62-2.9,2.7-1.74.08-3.17-1.04-3.19-2.45Z"/>
      <path class="st9" d="M163.46,106.26c-.04-1.16.93-2.12,2.17-2.16,1.24-.04,2.33.85,2.44,2,.11,1.15-.85,2.14-2.16,2.2-1.31.05-2.41-.87-2.45-2.03Z"/>
      <path class="st9" d="M157.05,108.38c.03-.87.84-1.57,1.79-1.56.96,0,1.74.71,1.75,1.59,0,.88-.79,1.59-1.79,1.58-1,0-1.78-.74-1.75-1.61Z"/>
      <path class="st9" d="M159.22,116.89c.01-.94.93-1.69,2.05-1.7,1.12-.01,2.06.72,2.1,1.66.04.94-.88,1.73-2.05,1.74-1.17.01-2.11-.76-2.1-1.69Z"/>
      <path class="st9" d="M155.25,88.44c.08-1.2.98-2.19,2.03-2.2,1.05,0,1.89.97,1.88,2.19,0,1.21-.92,2.2-2.03,2.2-1.11,0-1.95-.98-1.88-2.19Z"/>
      <path class="st9" d="M157.96,81.14c.04-1.38.95-2.51,2.04-2.51,1.08,0,2,1.13,2.04,2.51.04,1.38-.87,2.49-2.04,2.49-1.17,0-2.08-1.11-2.04-2.49Z"/>
      <path class="st9" d="M154.99,76.04c.09-1.31.95-2.41,1.92-2.45.97-.03,1.75,1.02,1.73,2.34-.02,1.32-.88,2.4-1.93,2.42-1.05.02-1.82-1.01-1.73-2.31Z"/>
      <path class="st9" d="M162.6,85.31c-.03-1.21.75-2.18,1.76-2.16,1.01.02,1.9,1.01,2,2.21.1,1.2-.68,2.16-1.76,2.16-1.07,0-1.97-.99-2-2.2Z"/>
      <path class="st9" d="M162.58,77c-.03-1.03.58-1.85,1.35-1.82.78.03,1.47.9,1.55,1.92.08,1.02-.53,1.83-1.35,1.8-.82-.02-1.52-.87-1.55-1.9Z"/>
      <path class="st9" d="M160.55,87.39c0-.81.56-1.46,1.25-1.46.7,0,1.29.66,1.32,1.47.03.81-.53,1.46-1.25,1.46-.73,0-1.32-.66-1.32-1.46Z"/>
      <path class="st9" d="M161.21,82.17c-.01-.92.58-1.66,1.32-1.65.74.01,1.38.77,1.43,1.68.05.92-.54,1.65-1.32,1.64-.78,0-1.42-.76-1.43-1.68Z"/>
    </g>
    <path class="st8" d="M149.84,109.11c.57-4.57,2.19-8.22,3.66-8.18,1.47.04,2.51,3.82,2.32,8.48-.19,4.66-1.86,8.41-3.7,8.28-1.85-.13-2.84-4.01-2.27-8.57Z"/>
    <path class="st11" d="M152.35,81.28c.41-3.96,1.39-7.21,2.23-7.27.84-.05,1.37,3.15,1.17,7.16-.2,4.01-1.22,7.27-2.27,7.27-1.05,0-1.54-3.21-1.13-7.17Z"/>
    <path class="st13" d="M160,127.54c-11.59-.09-19.26-8.55-17.34-16.04,2.2-10.67,4.12-21.33,5.76-32,1.39-7.6,6.47-14.92,11.58-14.96,5.11.04,10.2,7.36,11.58,14.96,1.64,10.67,3.56,21.33,5.76,32,1.91,7.49-5.76,15.95-17.34,16.04ZM160,68.67c-3.89.02-7.56,5.03-8.27,10.61-1.17,10.88-2.54,21.81-4.11,32.78-.97,5.59,4.54,11.18,12.39,11.21,7.85-.03,13.36-5.62,12.39-11.21-1.57-10.98-2.95-21.91-4.11-32.78-.71-5.58-4.38-10.59-8.27-10.61Z"/>
  </g>
  <g>
    <path class="st14" d="M212.32,112.13c-1.03-10.43-1.83-20.88-2.39-31.34-.4-6.37,5.96-12.9,14.07-12.95h0c8.1.05,14.47,6.57,14.07,12.95-.56,10.46-1.36,20.91-2.39,31.34-.77,6.39-6.07,12.52-11.68,12.55t0,0c-5.61-.03-10.91-6.16-11.68-12.55Z"/>
    <path class="st2" d="M213.67,112.07c-.88-10.13-1.56-20.27-2.05-30.44-.33-5.93,5.25-11.72,12.37-11.75h0c7.12.03,12.71,5.82,12.37,11.75-.49,10.17-1.17,20.31-2.05,30.44-.62,5.92-5.3,11.43-10.33,11.45t0,0c-5.03-.02-9.7-5.53-10.33-11.45Z"/>
    <path class="st10" d="M213.12,96.44c-.03-.5-.06-.99-.09-1.49,7.31-.14,14.62-.14,21.93,0-.03.5-.06.99-.09,1.49-7.25-.09-14.5-.09-21.75,0Z"/>
    <path class="st12" d="M213.12,96.44c-.02-.33-.04-.66-.06-.99,7.29-.12,14.58-.12,21.87,0-.02.33-.04.66-.06.99-7.25-.09-14.5-.09-21.75,0Z"/>
    <g>
      <path class="st9" d="M218.02,113.46c-.07-1.22.85-2.17,2.05-2.14,1.2.03,2.18,1.03,2.19,2.26.01,1.23-.9,2.21-2.05,2.17-1.15-.04-2.13-1.07-2.2-2.29Z"/>
      <path class="st9" d="M216.2,105.41c-.08-1.43,1.07-2.58,2.58-2.57,1.51.01,2.74,1.19,2.76,2.65.02,1.45-1.13,2.62-2.57,2.59-1.44-.03-2.68-1.23-2.77-2.67Z"/>
      <path class="st9" d="M223.9,109.54c0-1.17.95-2.12,2.13-2.13,1.18,0,2.1.92,2.06,2.09-.04,1.17-.99,2.14-2.13,2.15-1.13.01-2.06-.94-2.06-2.11Z"/>
      <path class="st9" d="M222.21,101.44c-.01-.95.79-1.72,1.79-1.72,1,0,1.81.77,1.79,1.72-.01.95-.82,1.72-1.79,1.72-.98,0-1.78-.77-1.79-1.72Z"/>
      <path class="st9" d="M225.53,114.58c.01-1.34,1.08-2.43,2.38-2.46,1.3-.03,2.29,1,2.22,2.33-.08,1.32-1.14,2.46-2.38,2.5-1.24.04-2.23-1.03-2.22-2.37Z"/>
      <path class="st9" d="M227.06,106.49c.02-1.12.97-2.03,2.11-2.04,1.15-.01,2.03.87,1.97,1.97-.06,1.1-1.01,2.03-2.11,2.05-1.11.03-1.99-.87-1.96-1.98Z"/>
      <path class="st9" d="M221.49,108.51c-.02-.84.65-1.51,1.5-1.51.84,0,1.52.68,1.52,1.52,0,.84-.67,1.52-1.5,1.51-.82,0-1.5-.69-1.52-1.53Z"/>
      <path class="st9" d="M223.44,116.61c0-.89.67-1.61,1.52-1.62.84,0,1.51.7,1.49,1.59-.02.89-.7,1.63-1.52,1.64-.82,0-1.48-.72-1.49-1.61Z"/>
      <path class="st9" d="M218.25,89.32c-.03-1.17,1.01-2.15,2.34-2.17,1.32-.02,2.4.93,2.4,2.11,0,1.18-1.04,2.14-2.33,2.15-1.29.01-2.37-.92-2.4-2.09Z"/>
      <path class="st9" d="M221.21,82.16c-.02-1.35,1.23-2.47,2.79-2.47,1.56,0,2.81,1.12,2.79,2.47-.02,1.35-1.27,2.42-2.79,2.42-1.52,0-2.77-1.07-2.79-2.42Z"/>
      <path class="st9" d="M216.54,77.26c-.03-1.28,1.17-2.41,2.69-2.47,1.52-.06,2.75.97,2.76,2.26,0,1.3-1.2,2.36-2.69,2.41-1.49.05-2.73-.92-2.76-2.2Z"/>
      <path class="st9" d="M227.32,86.23c.01-1.18,1.11-2.12,2.45-2.07,1.34.04,2.39,1.04,2.35,2.21-.04,1.16-1.15,2.07-2.46,2.04-1.31-.03-2.36-1-2.35-2.18Z"/>
      <path class="st9" d="M227.78,78.11c.01-1.01.98-1.8,2.16-1.75,1.18.06,2.12.94,2.09,1.94-.03,1-1,1.76-2.16,1.71-1.16-.05-2.1-.89-2.09-1.9Z"/>
      <path class="st9" d="M224.68,88.24c0-.79.72-1.42,1.6-1.41.88,0,1.59.66,1.57,1.44-.01.78-.73,1.41-1.6,1.4-.87,0-1.57-.65-1.57-1.43Z"/>
      <path class="st9" d="M225.62,83.16c0-.9.84-1.62,1.88-1.6,1.03.02,1.85.78,1.83,1.68-.02.89-.86,1.6-1.88,1.58-1.02-.02-1.84-.75-1.83-1.65Z"/>
    </g>
    <path class="st8" d="M215.53,109.37c-.3-4.39.67-7.95,2.14-7.94,1.47,0,2.74,3.63,2.84,8.09.1,4.46-.83,8.03-2.1,7.96-1.27-.08-2.58-3.72-2.88-8.1Z"/>
    <path class="st11" d="M213.53,82.48c-.17-3.85.8-7.08,2.12-7.18,1.32-.1,2.45,3.03,2.53,6.94.08,3.92-.84,7.11-2.08,7.14-1.24.03-2.4-3.05-2.57-6.9Z"/>
    <path class="st13" d="M224,126.69c-6.36-.05-12.57-7.41-13.63-14.72-1.2-10.31-2.13-20.62-2.78-30.93-.54-7.26,6.92-15.17,16.41-15.24,9.49.08,16.95,7.98,16.41,15.24-.65,10.31-1.58,20.62-2.78,30.93-1.05,7.32-7.27,14.67-13.63,14.72ZM224,69.88c-6.7.02-12,5.29-11.72,10.69.47,10.59,1.13,21.15,1.99,31.69.53,5.39,4.94,10.38,9.73,10.4,4.79-.02,9.2-5.01,9.73-10.4.86-10.54,1.52-21.1,1.99-31.69.28-5.4-5.02-10.67-11.72-10.69Z"/>
  </g>
</svg>